<?xml version="1.0" encoding="UTF-8"?>
<svg xmlns="http://www.w3.org/2000/svg" viewBox="0 0 22 22" width="22" height="22">
  <defs>
    <linearGradient id="g" x1="0%" y1="0%" x2="100%" y2="100%">
      <stop offset="0%" stop-color="#9b72cf"/>
      <stop offset="100%" stop-color="#5c35a0"/>
    </linearGradient>
  </defs>
  <!-- Hat brim -->
  <ellipse cx="11" cy="16.5" rx="7.5" ry="1.6" fill="#4a2a88"/>
  <!-- Hat body -->
  <path d="M 5.5 16.5 Q 5 12 6.5 7.5 Q 8 4 11 3.5 Q 14 4 15.5 7.5 Q 17 12 16.5 16.5 Z"
        fill="url(#g)"/>
  <!-- Band -->
  <path d="M 5.8 14 Q 11 15.2 16.2 14 L 16.5 15.5 Q 11 16.7 5.5 15.5 Z"
        fill="#3d2070" opacity="0.8"/>
  <!-- Star -->
  <polygon points="11,7 11.8,9.5 14.5,9.5 12.3,11 13.2,13.5 11,12 8.8,13.5 9.7,11 7.5,9.5 10.2,9.5"
           fill="#f0c040" transform="scale(0.6) translate(7.3, 4)"/>
</svg>
